<svg width="23" height="25" viewBox="0 0 23 25" fill="none" xmlns="http://www.w3.org/2000/svg">
<path opacity="0.5" d="M9.42114 19.4207C9.42114 19.4207 9.60307 19.4283 9.68436 19.4508C9.76762 19.4738 9.81274 19.614 9.83515 19.6632C9.83704 19.6674 9.83899 19.6716 9.84098 19.6759C9.87679 19.7537 9.9253 19.8591 9.86592 20.0123C9.80227 20.1765 9.61226 20.4006 9.12973 20.6991C8.64421 20.9996 8.3364 21.2301 8.14967 21.4143C7.96315 21.5984 7.89372 21.7398 7.89372 21.8616C7.89372 21.929 7.93275 21.985 7.99785 22.0279C8.06205 22.0703 8.15302 22.1012 8.2634 22.1214C8.48453 22.1619 8.79436 22.1615 9.15572 22.1138C9.44446 22.0757 9.6558 22.0307 9.80306 21.9895C9.91387 21.9586 9.99027 21.9294 10.0361 21.9062C10.1881 22.1336 10.4323 22.4709 10.6952 22.7795C10.8323 22.9405 10.9748 23.0941 11.1124 23.2204C11.2493 23.3462 11.3835 23.447 11.5041 23.5L11.5362 23.4435C11.4269 23.3955 11.2996 23.3011 11.1642 23.1767C11.0294 23.0529 10.8887 22.9014 10.7527 22.7417C10.4805 22.4221 10.2281 22.0712 10.0791 21.8457L10.0581 21.814L10.0256 21.8369C10.0012 21.8541 9.92581 21.889 9.78132 21.9294C9.63835 21.9693 9.4308 22.0137 9.14507 22.0514C8.78833 22.0984 8.48778 22.098 8.27805 22.0596C8.173 22.0403 8.09342 22.012 8.04093 21.9774C7.98934 21.9434 7.96553 21.9046 7.96553 21.8616C7.96553 21.7623 8.02177 21.6354 8.20328 21.4563C8.38457 21.2775 8.68714 21.0502 9.17106 20.7508C9.65795 20.4495 9.8629 20.2158 9.93389 20.0327C10.002 19.857 9.94463 19.7326 9.90785 19.6529C9.90577 19.6484 9.90375 19.644 9.90183 19.6398C9.86679 19.5628 9.79381 19.4149 9.70592 19.3906C9.61607 19.3657 9.51894 19.3569 9.45638 19.3569M9.42114 19.4207L9.45638 19.3569M9.42114 19.4207C9.17604 19.4041 8.95745 19.3063 8.77434 19.1413C8.59124 18.9762 8.43669 18.7599 8.31014 18.5374C8.04954 18.0791 8.27513 17.5919 8.56371 17.2113C8.7146 17.0123 8.96738 16.9149 9.19429 16.859C9.30531 16.8317 9.41184 16.8139 9.49906 16.7993L9.50583 16.7982C9.55033 16.7908 9.5891 16.7842 9.62118 16.7776C9.65385 16.7709 9.67667 16.7647 9.69058 16.7586C9.70868 16.7506 9.72499 16.7267 9.73155 16.6762C9.7378 16.6281 9.73374 16.567 9.72485 16.5025C9.71631 16.4406 9.70363 16.3776 9.69263 16.3229L9.69148 16.3172C9.68074 16.2639 9.67099 16.2154 9.67074 16.188C9.67063 16.1876 9.67033 16.1864 9.6696 16.1845C9.66824 16.1808 9.66595 16.1757 9.6625 16.169C9.65562 16.1557 9.6451 16.138 9.63098 16.1162C9.60279 16.0727 9.5615 16.0147 9.50955 15.9459C9.40573 15.8085 9.26037 15.6295 9.09475 15.4406C8.76264 15.0617 8.35249 14.6467 8.03399 14.4445C7.71704 14.2432 7.23856 14.0946 6.73114 14.0398C6.2238 13.985 5.69241 14.0245 5.2694 14.195C4.94173 14.3271 4.75914 14.6785 4.66759 15.0779C4.5766 15.4748 4.57831 15.9073 4.60799 16.184L4.6117 16.2185H4.57225C4.3916 16.2185 4.09411 16.209 3.78754 16.1804C3.48181 16.152 3.16348 16.1043 2.9432 16.0268C2.39365 15.8335 1.34348 15.1301 1.05406 13.6032C0.822401 12.3809 1.39092 11.354 1.70679 10.9904C1.96235 10.6697 2.76552 9.95802 3.95178 9.65272C5.43919 9.26991 6.85105 9.81278 7.8236 10.3829C8.75329 10.9279 9.2239 11.5024 9.67004 12.047C9.69199 12.0738 9.71387 12.1005 9.73575 12.1272C9.84739 12.2631 9.92016 12.3577 9.96951 12.4218L9.97648 12.4309C10.0013 12.4631 10.0194 12.4864 10.0334 12.5032C10.0446 12.5165 10.0518 12.5239 10.0565 12.5279C10.0597 12.526 10.0635 12.5235 10.0688 12.52C10.0929 12.5041 10.1306 12.4799 10.1994 12.4626C10.2429 12.4517 10.2708 12.4333 10.2889 12.4119C10.3073 12.3901 10.3174 12.363 10.3208 12.3328C10.3277 12.2714 10.3066 12.2029 10.2842 12.1585L10.2838 12.1578L9.67315 10.7679L9.74013 10.7451L10.3502 12.1336C10.3755 12.184 10.4008 12.2634 10.3922 12.339C10.3879 12.3774 10.3746 12.4163 10.3465 12.4495C10.3181 12.4831 10.2763 12.509 10.2192 12.5233C10.1623 12.5376 10.1327 12.5568 10.1119 12.5705C10.1111 12.571 10.1103 12.5716 10.1094 12.5722C10.1004 12.5781 10.0877 12.5866 10.0744 12.5906C10.0655 12.5932 10.0553 12.5944 10.0442 12.5924C10.0335 12.5906 10.0246 12.5862 10.0172 12.5814C10.0036 12.5724 9.99016 12.558 9.97564 12.5407C9.96053 12.5227 9.94157 12.4982 9.91702 12.4663L9.91007 12.4572C9.86082 12.3932 9.78855 12.2993 9.67753 12.1641C9.65586 12.1378 9.63419 12.1113 9.61248 12.0848C9.16656 11.5405 8.70248 10.974 7.78377 10.4355C6.81746 9.86898 5.42873 9.33839 3.97195 9.71332C2.80353 10.014 2.01276 10.7162 1.76518 11.0272L1.76475 11.0277L1.76429 11.0282C1.45771 11.3808 0.89709 12.3909 1.1249 13.5928C1.40996 15.0968 2.44227 15.7826 2.96987 15.9682C3.18044 16.0422 3.49044 16.0893 3.7951 16.1176C4.07758 16.1439 4.35241 16.1539 4.533 16.1552C4.50635 15.8735 4.5082 15.4536 4.59719 15.0654C4.68935 14.6633 4.87778 14.2834 5.23948 14.1376C5.67818 13.9608 6.22394 13.9214 6.73989 13.9771C7.25575 14.0328 7.7467 14.1841 8.07604 14.3933C8.40383 14.6014 8.81949 15.0231 9.15162 15.402C9.31812 15.592 9.46449 15.7721 9.56936 15.911C9.62176 15.9803 9.66406 16.0397 9.69338 16.085C9.70801 16.1076 9.71972 16.1271 9.72788 16.1429C9.73195 16.1508 9.73539 16.1582 9.73787 16.1649C9.74012 16.171 9.74254 16.1789 9.74254 16.1869C9.74254 16.2071 9.75063 16.2488 9.76219 16.3062L9.76344 16.3125C9.77438 16.3668 9.78736 16.4312 9.79614 16.4949C9.80521 16.5607 9.81012 16.6278 9.8029 16.6833C9.796 16.7364 9.7764 16.7914 9.72269 16.815C9.7007 16.8247 9.67079 16.8323 9.63754 16.8391C9.6037 16.8461 9.56336 16.8529 9.51922 16.8602L9.51321 16.8612C9.42561 16.8759 9.32167 16.8932 9.21365 16.9198C8.99175 16.9744 8.75981 17.0665 8.62346 17.2463C8.33757 17.6234 8.1323 18.0834 8.37437 18.5092C8.49916 18.7286 8.6498 18.9386 8.82574 19.0972C9.00168 19.2557 9.23471 19.3419 9.45638 19.3569M10.0201 1.04765C10.5695 1.46774 11.9851 2.64312 13.2475 3.98022C14.0322 4.8114 14.3893 5.75275 14.5277 6.5655C14.6662 7.37871 14.5855 8.06119 14.497 8.37252C14.4262 8.62158 14.2034 9.07654 13.9518 9.54675C13.7136 9.99185 13.4511 10.4477 13.2717 10.7491L13.2599 10.7451L12.6498 12.1336C12.6245 12.184 12.5992 12.2634 12.6078 12.339C12.6121 12.3774 12.6254 12.4163 12.6535 12.4495C12.6819 12.4831 12.7237 12.509 12.7808 12.5233C12.8377 12.5376 12.8673 12.5568 12.8881 12.5705L12.8906 12.5722C12.8996 12.5781 12.9123 12.5866 12.9256 12.5906C12.9345 12.5932 12.9447 12.5944 12.9558 12.5924C12.9665 12.5906 12.9754 12.5862 12.9828 12.5814C12.9964 12.5724 13.0098 12.558 13.0244 12.5407C13.0395 12.5227 13.0584 12.4982 13.083 12.4663L13.0899 12.4572L13.09 12.4572C13.1392 12.3932 13.2115 12.2993 13.3225 12.1641C13.3441 12.1378 13.3658 12.1113 13.3875 12.0848C13.8334 11.5405 14.2975 10.974 15.2162 10.4355C16.1825 9.86898 17.5713 9.33839 19.028 9.71332C20.1965 10.014 20.9872 10.7162 21.2348 11.0272L21.2353 11.0277L21.2357 11.0282C21.5423 11.3808 22.1029 12.3909 21.8751 13.5928C21.59 15.0968 20.5577 15.7826 20.0301 15.9682C19.8196 16.0422 19.5096 16.0893 19.2049 16.1176C18.9224 16.1439 18.6476 16.1539 18.467 16.1552C18.4937 15.8735 18.4918 15.4536 18.4028 15.0654C18.3106 14.6633 18.1222 14.2834 17.7605 14.1376C17.3218 13.9608 16.7761 13.9214 16.2601 13.9771C15.7442 14.0328 15.2533 14.1841 14.924 14.3933C14.5962 14.6014 14.1805 15.0231 13.8484 15.402C13.6819 15.592 13.5355 15.7721 13.4306 15.911C13.3782 15.9803 13.3359 16.0397 13.3066 16.085C13.292 16.1076 13.2803 16.1271 13.2721 16.1429C13.268 16.1508 13.2646 16.1582 13.2621 16.1649C13.2599 16.171 13.2575 16.1789 13.2575 16.1869C13.2575 16.2071 13.2494 16.2488 13.2378 16.3062L13.2366 16.3125C13.2256 16.3668 13.2126 16.4312 13.2039 16.4949C13.1948 16.5607 13.1899 16.6278 13.1971 16.6833C13.204 16.7364 13.2236 16.7914 13.2773 16.815C13.2993 16.8247 13.3292 16.8323 13.3625 16.8391C13.3963 16.8461 13.4366 16.8529 13.4808 16.8602L13.4868 16.8612C13.5744 16.8759 13.6783 16.8932 13.7863 16.9198C14.0083 16.9744 14.2402 17.0665 14.3765 17.2463C14.6624 17.6234 14.8677 18.0834 14.6256 18.5092C14.5008 18.7286 14.3502 18.9386 14.1743 19.0972C13.9983 19.2557 13.7995 19.3608 13.5778 19.3758L13.5834 19.4388C13.8284 19.4222 14.0426 19.3063 14.2257 19.1413C14.4088 18.9762 14.5633 18.7599 14.6899 18.5374C14.9505 18.0791 14.7249 17.5919 14.4363 17.2113C14.2854 17.0123 14.0326 16.9149 13.8057 16.859C13.6947 16.8317 13.5882 16.8139 13.5009 16.7993L13.4942 16.7982C13.4497 16.7908 13.4109 16.7842 13.3788 16.7776C13.3462 16.7709 13.3233 16.7647 13.3094 16.7586C13.2913 16.7506 13.275 16.7267 13.2684 16.6762C13.2622 16.6281 13.2663 16.567 13.2751 16.5025C13.2837 16.4406 13.2964 16.3776 13.3074 16.3229L13.3085 16.3172C13.3193 16.2639 13.329 16.2154 13.3293 16.188C13.3294 16.1876 13.3297 16.1864 13.3304 16.1845C13.3318 16.1808 13.334 16.1757 13.3375 16.169C13.3444 16.1557 13.3549 16.138 13.369 16.1162C13.3972 16.0727 13.4385 16.0147 13.4905 15.9459C13.5943 15.8085 13.7396 15.6295 13.9053 15.4406C14.2374 15.0617 14.6475 14.6467 14.966 14.4445C15.283 14.2432 15.7614 14.0946 16.2689 14.0398C16.7762 13.985 17.3076 14.0245 17.7306 14.195C18.0583 14.3271 18.2409 14.6785 18.3324 15.0779C18.4234 15.4748 18.4217 15.9073 18.392 16.184L18.3883 16.2185H18.4278C18.6084 16.2185 18.9059 16.209 19.2125 16.1804C19.5182 16.152 19.8365 16.1043 20.0568 16.0268C20.6064 15.8335 21.6565 15.1301 21.9459 13.6032C22.1776 12.3809 21.6091 11.354 21.2932 10.9904C21.0377 10.6697 20.2345 9.95802 19.0482 9.65272C17.5608 9.26991 16.149 9.81278 15.1764 10.3829C14.2467 10.9279 13.7761 11.5024 13.33 12.047C13.308 12.0738 13.2861 12.1005 13.2643 12.1272C13.1526 12.2631 13.0798 12.3577 13.0305 12.4218L13.0235 12.4309C12.9987 12.4631 12.9806 12.4864 12.9666 12.5032C12.9554 12.5165 12.9482 12.5239 12.9435 12.5279C12.9403 12.526 12.9365 12.5235 12.9312 12.52C12.9071 12.5041 12.8694 12.4799 12.8006 12.4626C12.7571 12.4517 12.7292 12.4333 12.7111 12.4119C12.6927 12.3901 12.6826 12.363 12.6792 12.3328C12.6723 12.2714 12.6934 12.2029 12.7158 12.1585L12.7162 12.1578L13.3023 10.8238L13.3069 10.826C13.4866 10.5257 13.7651 10.0438 14.0167 9.57364C14.2678 9.10458 14.4938 8.64394 14.5666 8.38784C14.6576 8.06772 14.7385 7.37681 14.5987 6.55615C14.4589 5.73503 14.0978 4.78204 13.3028 3.93989C12.0374 2.59965 10.6189 1.42184 10.0673 1L10.0201 1.04765ZM13.3344 19.5553C13.4157 19.5328 13.5053 19.5252 13.5624 19.5252V19.4621C13.4998 19.4621 13.4027 19.4702 13.3128 19.4951C13.2249 19.5194 13.1332 19.5628 13.0982 19.6398C13.0974 19.6415 13.0966 19.6432 13.0958 19.6449C13.0946 19.6475 13.0934 19.6502 13.0921 19.6529C13.0554 19.7326 12.998 19.857 13.0661 20.0327C13.1371 20.2158 13.342 20.4495 13.8289 20.7508C14.3129 21.0502 14.6154 21.2775 14.7967 21.4563C14.9782 21.6354 15.0345 21.7623 15.0345 21.8616C15.0345 21.9046 15.0107 21.9434 14.9591 21.9774C14.9066 22.012 14.827 22.0403 14.722 22.0596C14.5122 22.098 14.2117 22.0984 13.8549 22.0514C13.5692 22.0137 13.3616 21.9693 13.2187 21.9294C13.0742 21.889 12.9988 21.8541 12.9744 21.8369L12.9419 21.814L12.9209 21.8457C12.7719 22.0712 12.5195 22.4221 12.2473 22.7417C12.1113 22.9014 11.9706 23.0529 11.8358 23.1767C11.7004 23.3011 11.5731 23.3955 11.4638 23.4435L11.4959 23.5C11.6165 23.447 11.7507 23.3462 11.8876 23.2204C12.0252 23.0941 12.1677 22.9405 12.3048 22.7795C12.5677 22.4709 12.8119 22.1336 12.9639 21.9062C13.0097 21.9294 13.0861 21.9586 13.1969 21.9895C13.3442 22.0307 13.5555 22.0757 13.8443 22.1138C14.2056 22.1615 14.5155 22.1619 14.7366 22.1214C14.847 22.1012 14.938 22.0703 15.0022 22.0279C15.0672 21.985 15.1063 21.929 15.1063 21.8616C15.1063 21.7398 15.0368 21.5984 14.8503 21.4143C14.6636 21.2301 14.3558 20.9996 13.8703 20.6991C13.3877 20.4006 13.1977 20.1765 13.1341 20.0123C13.0747 19.8591 13.1232 19.7537 13.159 19.6759L13.1618 19.67C13.1628 19.6677 13.1638 19.6655 13.1648 19.6632C13.1873 19.614 13.2511 19.5784 13.3344 19.5553ZM9.7525 3.98022C11.0149 2.64312 12.4305 1.46774 12.9799 1.04765L12.9327 1C12.3811 1.42184 10.9626 2.59965 9.69725 3.93989C8.90216 4.78204 8.54112 5.73503 8.40128 6.55615C8.26151 7.37681 8.34236 8.06772 8.43337 8.38784C8.50618 8.64394 8.73224 9.10458 8.98326 9.57364C9.23487 10.0438 9.51338 10.5257 9.6931 10.826L9.75664 10.7965C9.57731 10.4969 9.2993 10.0159 9.04824 9.54675C8.7966 9.07654 8.57384 8.62158 8.50303 8.37252C8.41452 8.06119 8.3338 7.37871 8.47229 6.5655C8.61071 5.75275 8.96777 4.8114 9.7525 3.98022Z" stroke="white" stroke-width="0.8"/>
</svg>
